<svg width="48" height="48" viewBox="0 0 48 48" fill="none" xmlns="http://www.w3.org/2000/svg">
<path d="M42.2772 27.1294C42.1532 23.9654 41.1252 21.5334 39.9452 19.7294C40.5732 16.6894 40.2172 8.96537 37.9412 8.51737C36.0692 8.14537 31.6772 11.4854 30.5412 12.5094C28.4532 11.8854 26.3652 11.5894 23.945 11.5894C21.413 11.5894 19.325 11.8854 17.349 12.5094C16.045 11.2694 12.425 8.05737 9.96502 8.51737C7.30502 9.00537 7.24502 15.6214 7.53702 19.4854C6.23702 21.4934 5.38102 23.9654 5.25302 26.4934C4.95702 31.0974 7.16902 35.1814 10.685 37.2294C13.197 38.7014 14.377 38.9974 14.377 38.9974H33.9252C33.9252 38.9974 35.1652 38.4454 37.0972 36.9774C40.0492 34.8094 42.4052 31.3654 42.2772 27.1294Z" fill="white" style="fill:white;fill-opacity:1;"/>
<path d="M17.3499 12.5094C19.3259 11.8854 21.4139 11.5894 23.9459 11.5894C24.8015 22.6008 15.4015 27.6008 5.25391 26.4934C5.38191 23.9654 6.23791 21.4934 7.53791 19.4854C7.24591 15.6214 7.3059 9.00537 9.9659 8.51737C12.4259 8.05737 16.0459 11.2694 17.3499 12.5094Z" fill="white" style="fill:white;fill-opacity:1;"/>
<path d="M39.9448 19.7291C41.1248 21.5331 42.1528 23.9651 42.2768 27.1291C34.0008 28.4008 22.6008 22.6008 23.9447 11.5891C26.3648 11.5891 28.4528 11.8851 30.5408 12.5091C31.6768 11.4851 36.0688 8.14505 37.9408 8.51705C40.2168 8.96505 40.5728 16.6891 39.9448 19.7291Z" fill="white" style="fill:white;fill-opacity:1;"/>
<path d="M41.1328 31.4096C39.2448 34.9296 35.4008 40.8016 23.8168 40.1896C12.8008 39.8016 7.80078 35.6016 6.80078 32.1496C8.84478 32.7056 14.1008 33.3176 17.7208 29.7696C19.7208 27.7896 20.1128 25.6016 23.2968 25.6016C26.4808 25.6016 27.1928 27.9696 28.9528 29.6256C31.7808 32.2936 36.1088 32.5696 41.1328 31.4096Z" fill="white" style="fill:white;fill-opacity:1;"/>
<path d="M14.0761 14.0168C14.4841 13.5288 11.5161 10.6848 10.6601 10.8128C9.31615 11.0208 9.31615 14.7808 9.56415 17.6968C9.60815 18.0528 13.1641 14.9088 14.0761 14.0168Z" fill="white" style="fill:white;fill-opacity:1;"/>
<path d="M33.6828 14.0168C33.2748 13.5288 36.2428 10.6848 37.2468 10.8128C38.4668 10.9808 38.6988 14.8448 38.2468 17.9488C38.1868 18.3408 34.8748 15.1248 33.6828 14.0168Z" fill="white" style="fill:white;fill-opacity:1;"/>
<path d="M17.2689 25.1992C16.3099 25.1992 16 25.9332 16 26.3802C16 27.0989 16.5272 27.5992 17.2689 27.5992C18.1298 27.5992 18.4 26.9186 18.4 26.3802C18.4 25.7427 17.9709 25.1992 17.2689 25.1992Z" fill="#5D4037" style="fill:#5D4037;fill:color(display-p3 0.3647 0.2510 0.2157);fill-opacity:1;"/>
<path d="M30.8108 25.1992C29.894 25.1992 29.6016 25.9539 29.6016 26.4136C29.6016 27.1527 30.1212 27.5992 30.8108 27.5992C31.6464 27.5992 32.0016 26.9672 32.0016 26.4136C32.0016 25.8417 31.5628 25.1992 30.8108 25.1992Z" fill="#5D4037" style="fill:#5D4037;fill:color(display-p3 0.3647 0.2510 0.2157);fill-opacity:1;"/>
<path d="M23.1004 28.2422H24.8244C25.4924 28.2422 25.6 28.7984 24.8 29.3984L24.2 29.7984C23.868 29.9664 23.3204 29.6862 22.9684 29.3702C22.3404 28.8422 22.4044 28.2422 23.1004 28.2422Z" fill="#5D4037" style="fill:#5D4037;fill:color(display-p3 0.3647 0.2510 0.2157);fill-opacity:1;"/>
<path opacity="0.6" d="M13.1992 30.7984C14.3038 30.7984 15.1992 30.2612 15.1992 29.5984C15.1992 28.9357 14.3038 28.3984 13.1992 28.3984C12.0946 28.3984 11.1992 28.9357 11.1992 29.5984C11.1992 30.2612 12.0946 30.7984 13.1992 30.7984Z" fill="#FFCCBC" style="fill:#FFCCBC;fill:color(display-p3 1.0000 0.8000 0.7373);fill-opacity:1;"/>
<path opacity="0.6" d="M34.8008 30.7984C35.9054 30.7984 36.8008 30.2612 36.8008 29.5984C36.8008 28.9357 35.9054 28.3984 34.8008 28.3984C33.6962 28.3984 32.8008 28.9357 32.8008 29.5984C32.8008 30.2612 33.6962 30.7984 34.8008 30.7984Z" fill="#FFCCBC" style="fill:#FFCCBC;fill:color(display-p3 1.0000 0.8000 0.7373);fill-opacity:1;"/>
<path d="M14.377 38.9974C14.377 38.9974 13.197 38.7014 10.685 37.2294C7.16902 35.1814 4.95702 31.0974 5.25302 26.4934C5.38102 23.9654 6.23702 21.4934 7.53702 19.4854C7.24502 15.6214 7.30502 9.00537 9.96502 8.51737C12.425 8.05737 16.045 11.2694 17.349 12.5094C19.325 11.8854 21.413 11.5894 23.945 11.5894C26.3652 11.5894 28.4532 11.8854 30.5412 12.5094C31.6772 11.4854 36.0692 8.14537 37.9412 8.51737C40.2172 8.96537 40.5732 16.6894 39.9452 19.7294C41.1252 21.5334 42.1532 23.9654 42.2772 27.1294C42.4052 31.3654 40.0492 34.8094 37.0972 36.9774C35.1652 38.4454 33.9252 38.9974 33.9252 38.9974" stroke="#5D4037" style="stroke:#5D4037;stroke:color(display-p3 0.3647 0.2510 0.2157);stroke-opacity:1;" stroke-linecap="round" stroke-linejoin="round"/>
</svg>
